<?xml version="1.0" encoding="utf-8"?>
<!-- Generator: Adobe Illustrator 16.0.0, SVG Export Plug-In . SVG Version: 6.00 Build 0)  -->
<!DOCTYPE svg PUBLIC "-//W3C//DTD SVG 1.1//EN" "http://www.w3.org/Graphics/SVG/1.1/DTD/svg11.dtd">
<svg version="1.1" id="Ebene_1" xmlns="http://www.w3.org/2000/svg" xmlns:xlink="http://www.w3.org/1999/xlink" x="0px" y="0px"
	 width="1058px" height="753px" viewBox="0 0 1058 753" enable-background="new 0 0 1058 753" xml:space="preserve">
<g>
	<defs>
		<rect id="SVGID_1_" x="276.5" y="33" width="579" height="694"/>
	</defs>
	<clipPath id="SVGID_2_">
		<use xlink:href="#SVGID_1_"  overflow="visible"/>
	</clipPath>
	<g clip-path="url(#SVGID_2_)">
		<g>
			<g>
				<defs>
					<rect id="SVGID_3_" width="1058" height="753"/>
				</defs>
				<clipPath id="SVGID_4_">
					<use xlink:href="#SVGID_3_"  overflow="visible"/>
				</clipPath>
				<rect clip-path="url(#SVGID_4_)" fill="#FFFFFF" width="1058" height="753"/>
			</g>
		</g>
		<g transform="scale(1.3333,1.3333) translate(0,4.1328)">
			<g>
				<defs>
					<rect id="SVGID_5_" x="-132.237" y="-98.248" width="1057.974" height="752.981"/>
				</defs>
				<clipPath id="SVGID_6_">
					<use xlink:href="#SVGID_5_"  overflow="visible"/>
				</clipPath>
				
					<rect x="10" y="5.867" clip-path="url(#SVGID_6_)" fill="none" stroke="#000000" stroke-linecap="square" stroke-miterlimit="10" width="774" height="545.133"/>
			</g>
			<g>
				<defs>
					<rect id="SVGID_7_" x="-132.237" y="-98.248" width="1057.974" height="752.981"/>
				</defs>
				<clipPath id="SVGID_8_">
					<use xlink:href="#SVGID_7_"  overflow="visible"/>
				</clipPath>
				
					<line clip-path="url(#SVGID_8_)" fill="none" stroke="#000000" stroke-linecap="square" stroke-miterlimit="10" x1="60" y1="6.867" x2="60" y2="20"/>
			</g>
			<g>
				<defs>
					<rect id="SVGID_9_" x="-132.237" y="-98.248" width="1057.974" height="752.981"/>
				</defs>
				<clipPath id="SVGID_10_">
					<use xlink:href="#SVGID_9_"  overflow="visible"/>
				</clipPath>
				
					<line clip-path="url(#SVGID_10_)" fill="none" stroke="#000000" stroke-linecap="square" stroke-miterlimit="10" x1="60" y1="20" x2="50" y2="30"/>
			</g>
			<g>
				<defs>
					<rect id="SVGID_11_" x="-132.237" y="-98.248" width="1057.974" height="752.981"/>
				</defs>
				<clipPath id="SVGID_12_">
					<use xlink:href="#SVGID_11_"  overflow="visible"/>
				</clipPath>
				
					<line clip-path="url(#SVGID_12_)" fill="none" stroke="#000000" stroke-linecap="square" stroke-miterlimit="10" x1="50" y1="30" x2="10" y2="30"/>
			</g>
		</g>
		<g transform="matrix(1.3333,0,0,1.3333,0,5.5104) translate(20,22.8672)">
			<g>
				<defs>
					<rect id="SVGID_13_" x="-152.237" y="-121.116" width="1057.974" height="752.981"/>
				</defs>
				<clipPath id="SVGID_14_">
					<use xlink:href="#SVGID_13_"  overflow="visible"/>
				</clipPath>
				<path clip-path="url(#SVGID_14_)" d="M1.084,2.314v-8.748h1.734v1.213C3.264-6.127,3.965-6.58,4.922-6.58
					c0.773,0,1.382,0.283,1.825,0.85C7.19-5.164,7.412-4.385,7.412-3.392c0,1.078-0.25,1.937-0.75,2.578
					c-0.5,0.641-1.17,0.961-2.01,0.961c-0.676,0-1.287-0.266-1.834-0.797v2.965H1.084z M2.818-1.681
					C3.24-1.213,3.689-0.978,4.166-0.978c0.426,0,0.765-0.206,1.02-0.619c0.254-0.412,0.381-0.962,0.381-1.649
					c0-1.317-0.424-1.975-1.272-1.975c-0.512,0-1.004,0.33-1.477,0.99V-1.681z M9.035,0v-9.252h1.734v5.819h0.111l2.291-3h1.441
					L12.498-3.68L15.275,0h-2.109l-2.285-3.216h-0.111V0H9.035z M16.676,1.998l0.141-1.26c0.715,0.328,1.396,0.492,2.045,0.492
					c0.641,0,1.103-0.137,1.389-0.41c0.285-0.273,0.427-0.717,0.427-1.33v-0.879C20.256-0.463,19.559,0,18.586,0
					c-0.766,0-1.373-0.286-1.822-0.858c-0.449-0.572-0.674-1.347-0.674-2.323c0-1.028,0.252-1.851,0.756-2.47
					c0.504-0.619,1.174-0.929,2.01-0.929c0.656,0,1.263,0.266,1.822,0.797l0.182-0.65h1.559v4.91c0,0.98-0.06,1.687-0.179,2.121
					C22.12,1.031,21.889,1.4,21.545,1.705c-0.578,0.5-1.392,0.75-2.443,0.75C18.355,2.455,17.547,2.303,16.676,1.998z M20.678-2.396
					v-2.373c-0.418-0.473-0.855-0.709-1.312-0.709c-0.438,0-0.785,0.199-1.043,0.598c-0.258,0.398-0.387,0.934-0.387,1.606
					c0,1.258,0.404,1.886,1.213,1.886C19.707-1.389,20.217-1.725,20.678-2.396z"/>
			</g>
		</g>
		<g transform="matrix(1.3333,0,0,1.3333,0,5.5104) translate(5,5)">
			<g>
				<defs>
					<rect id="SVGID_15_" x="-137.237" y="-103.249" width="1057.974" height="752.981"/>
				</defs>
				<clipPath id="SVGID_16_">
					<use xlink:href="#SVGID_15_"  overflow="visible"/>
				</clipPath>
				<rect x="231" y="40" clip-path="url(#SVGID_16_)" fill="#C0C0C0" fill-opacity="0.502" width="153.2" height="15"/>
			</g>
			<g>
				<defs>
					<rect id="SVGID_17_" x="-137.237" y="-103.249" width="1057.974" height="752.981"/>
				</defs>
				<clipPath id="SVGID_18_">
					<use xlink:href="#SVGID_17_"  overflow="visible"/>
				</clipPath>
				
					<rect x="231" y="40" clip-path="url(#SVGID_18_)" fill="none" stroke="#C0C0C0" stroke-width="2" stroke-linecap="square" stroke-miterlimit="10" stroke-opacity="0.502" width="153.2" height="15"/>
			</g>
		</g>
		<g transform="matrix(1.3333,0,0,1.3333,0,5.5104)">
			<g>
				<defs>
					<rect id="SVGID_19_" x="-132.237" y="-98.249" width="1057.974" height="752.981"/>
				</defs>
				<clipPath id="SVGID_20_">
					<use xlink:href="#SVGID_19_"  overflow="visible"/>
				</clipPath>
				
					<linearGradient id="SVGID_21_" gradientUnits="userSpaceOnUse" x1="320.3481" y1="428.3188" x2="474.3481" y2="413.3188" gradientTransform="matrix(1.3333 0 0 -1.3333 -196.123 611.1163)">
					<stop  offset="0" style="stop-color:#FFFFFF"/>
					<stop  offset="1" style="stop-color:#FFFFCC"/>
				</linearGradient>
				<rect x="231" y="40" clip-path="url(#SVGID_20_)" fill="url(#SVGID_21_)" width="153.2" height="15"/>
			</g>
			<g>
				<defs>
					<rect id="SVGID_22_" x="-132.237" y="-98.249" width="1057.974" height="752.981"/>
				</defs>
				<clipPath id="SVGID_23_">
					<use xlink:href="#SVGID_22_"  overflow="visible"/>
				</clipPath>
				
					<rect x="231" y="40" clip-path="url(#SVGID_23_)" fill="none" stroke="#000000" stroke-width="2" stroke-linecap="square" stroke-miterlimit="10" width="153.2" height="15"/>
			</g>
		</g>
		<g transform="matrix(1.3333,0,0,1.3333,0,5.5104) translate(5,5)">
			<g>
				<defs>
					<rect id="SVGID_24_" x="-137.237" y="-103.249" width="1057.974" height="752.981"/>
				</defs>
				<clipPath id="SVGID_25_">
					<use xlink:href="#SVGID_24_"  overflow="visible"/>
				</clipPath>
				<rect x="231" y="55" clip-path="url(#SVGID_25_)" fill="#C0C0C0" fill-opacity="0.502" width="383" height="192"/>
			</g>
			<g>
				<defs>
					<rect id="SVGID_26_" x="-137.237" y="-103.249" width="1057.974" height="752.981"/>
				</defs>
				<clipPath id="SVGID_27_">
					<use xlink:href="#SVGID_26_"  overflow="visible"/>
				</clipPath>
				
					<rect x="231" y="55" clip-path="url(#SVGID_27_)" fill="none" stroke="#C0C0C0" stroke-width="2" stroke-linecap="square" stroke-miterlimit="10" stroke-opacity="0.502" width="383" height="192"/>
			</g>
		</g>
		<g transform="matrix(1.3333,0,0,1.3333,0,5.5104)">
			<g>
				<defs>
					<rect id="SVGID_28_" x="-132.237" y="-98.249" width="1057.974" height="752.981"/>
				</defs>
				<clipPath id="SVGID_29_">
					<use xlink:href="#SVGID_28_"  overflow="visible"/>
				</clipPath>
				
					<linearGradient id="SVGID_30_" gradientUnits="userSpaceOnUse" x1="320.3503" y1="417.0979" x2="703.3506" y2="225.0977" gradientTransform="matrix(1.3333 0 0 -1.3333 -196.123 611.1163)">
					<stop  offset="0" style="stop-color:#FFFFFF"/>
					<stop  offset="1" style="stop-color:#FFFFCC"/>
				</linearGradient>
				<rect x="231" y="55" clip-path="url(#SVGID_29_)" fill="url(#SVGID_30_)" width="383" height="192"/>
			</g>
			<g>
				<defs>
					<rect id="SVGID_31_" x="-132.237" y="-98.249" width="1057.974" height="752.981"/>
				</defs>
				<clipPath id="SVGID_32_">
					<use xlink:href="#SVGID_31_"  overflow="visible"/>
				</clipPath>
				
					<rect x="231" y="55" clip-path="url(#SVGID_32_)" fill="none" stroke="#000000" stroke-width="2" stroke-linecap="square" stroke-miterlimit="10" width="383" height="192"/>
			</g>
		</g>
		<g transform="matrix(1.3333,0,0,1.3333,0,5.5104) translate(408.5,72)">
			<g>
				<defs>
					<rect id="SVGID_33_" x="-540.737" y="-170.249" width="1057.974" height="752.981"/>
				</defs>
				<clipPath id="SVGID_34_">
					<use xlink:href="#SVGID_33_"  overflow="visible"/>
				</clipPath>
				<path clip-path="url(#SVGID_34_)" d="M1.084,0v-9.252h1.734v4.031C3.385-6.127,4.115-6.58,5.01-6.58
					c0.574,0,1.027,0.182,1.359,0.545c0.333,0.363,0.499,0.859,0.499,1.488V0H5.133v-4.119c0-0.731-0.242-1.096-0.727-1.096
					c-0.551,0-1.08,0.389-1.588,1.166V0H1.084z M8.965,0v-6.433h1.734V0H8.965z M8.965-7.518v-1.447h1.734v1.447H8.965z
					 M12.914,1.998l0.141-1.26c0.715,0.328,1.397,0.492,2.045,0.492c0.641,0,1.104-0.137,1.389-0.41
					c0.286-0.273,0.428-0.717,0.428-1.33v-0.879C16.494-0.463,15.797,0,14.824,0c-0.765,0-1.373-0.286-1.822-0.858
					c-0.449-0.572-0.674-1.347-0.674-2.323c0-1.028,0.252-1.851,0.756-2.47c0.504-0.619,1.174-0.929,2.01-0.929
					c0.656,0,1.264,0.266,1.822,0.797l0.182-0.65h1.559v4.91c0,0.98-0.059,1.687-0.179,2.121c-0.119,0.434-0.351,0.803-0.694,1.107
					c-0.578,0.5-1.392,0.75-2.443,0.75C14.594,2.455,13.785,2.303,12.914,1.998z M16.916-2.397v-2.373
					c-0.417-0.473-0.855-0.709-1.313-0.709c-0.437,0-0.785,0.199-1.043,0.598c-0.258,0.398-0.387,0.934-0.387,1.605
					c0,1.258,0.404,1.886,1.213,1.886C15.945-1.389,16.455-1.725,16.916-2.397z M20.783,0v-9.252h1.734v4.031
					c0.566-0.906,1.297-1.359,2.191-1.359c0.574,0,1.028,0.182,1.359,0.545c0.332,0.363,0.498,0.859,0.498,1.488V0h-1.734v-4.119
					c0-0.731-0.242-1.096-0.727-1.096c-0.551,0-1.08,0.389-1.588,1.166V0H20.783z"/>
			</g>
		</g>
		<g transform="matrix(1.3333,0,0,1.3333,0,5.5104) translate(5,5)">
			<g>
				<defs>
					<rect id="SVGID_35_" x="-137.237" y="-103.249" width="1057.974" height="752.981"/>
				</defs>
				<clipPath id="SVGID_36_">
					<use xlink:href="#SVGID_35_"  overflow="visible"/>
				</clipPath>
				<rect x="271" y="96" clip-path="url(#SVGID_36_)" fill="#C0C0C0" fill-opacity="0.502" width="129" height="55.266"/>
			</g>
			<g>
				<defs>
					<rect id="SVGID_37_" x="-137.237" y="-103.249" width="1057.974" height="752.981"/>
				</defs>
				<clipPath id="SVGID_38_">
					<use xlink:href="#SVGID_37_"  overflow="visible"/>
				</clipPath>
				
					<rect x="271" y="96" clip-path="url(#SVGID_38_)" fill="none" stroke="#C0C0C0" stroke-width="2" stroke-linecap="square" stroke-miterlimit="10" stroke-opacity="0.502" width="129" height="55.266"/>
			</g>
		</g>
		<g transform="matrix(1.3333,0,0,1.3333,0,5.5104)">
			<g>
				<defs>
					<rect id="SVGID_39_" x="-132.237" y="-98.249" width="1057.974" height="752.981"/>
				</defs>
				<clipPath id="SVGID_40_">
					<use xlink:href="#SVGID_39_"  overflow="visible"/>
				</clipPath>
				
					<linearGradient id="SVGID_41_" gradientUnits="userSpaceOnUse" x1="350.4518" y1="386.58" x2="479.4518" y2="330.58" gradientTransform="matrix(1.3333 0 0 -1.3333 -196.123 611.1163)">
					<stop  offset="0" style="stop-color:#FFFFFF"/>
					<stop  offset="1" style="stop-color:#FFFFCC"/>
				</linearGradient>
				<rect x="271" y="96" clip-path="url(#SVGID_40_)" fill="url(#SVGID_41_)" width="129" height="55.266"/>
			</g>
			<g>
				<defs>
					<rect id="SVGID_42_" x="-132.237" y="-98.249" width="1057.974" height="752.981"/>
				</defs>
				<clipPath id="SVGID_43_">
					<use xlink:href="#SVGID_42_"  overflow="visible"/>
				</clipPath>
				
					<rect x="271" y="96" clip-path="url(#SVGID_43_)" fill="none" stroke="#000000" stroke-width="2" stroke-linecap="square" stroke-miterlimit="10" width="129" height="55.266"/>
			</g>
		</g>
		<g transform="matrix(1.3333,0,0,1.3333,0,5.5104) translate(281,134.1328)">
			<g>
				<defs>
					<rect id="SVGID_44_" x="-413.237" y="-232.381" width="1057.974" height="752.981"/>
				</defs>
				<clipPath id="SVGID_45_">
					<use xlink:href="#SVGID_44_"  overflow="visible"/>
				</clipPath>
				<path clip-path="url(#SVGID_45_)" d="M0.867-3.035v-0.867H6.07v0.867H0.867z M11.894,2.314v-8.678h1.154v1.195
					c0.473-0.891,1.182-1.336,2.127-1.336c0.766,0,1.368,0.279,1.808,0.838c0.439,0.559,0.659,1.322,0.659,2.291
					c0,1.055-0.249,1.905-0.747,2.552c-0.498,0.647-1.153,0.97-1.966,0.97c-0.754,0-1.381-0.289-1.881-0.867v3.035H11.894z
					 M13.049-1.518c0.594,0.531,1.16,0.797,1.699,0.797c1.109,0,1.664-0.846,1.664-2.537c0-1.492-0.492-2.238-1.477-2.238
					c-0.645,0-1.273,0.35-1.887,1.049V-1.518z M21.938,0.146c-0.91,0-1.637-0.302-2.18-0.905c-0.543-0.604-0.814-1.411-0.814-2.423
					c0-1.023,0.272-1.833,0.817-2.429c0.545-0.595,1.284-0.893,2.218-0.893c0.933,0,1.673,0.298,2.217,0.893
					c0.545,0.596,0.817,1.402,0.817,2.417c0,1.039-0.273,1.856-0.82,2.449C23.646-0.15,22.895,0.146,21.938,0.146z M21.955-0.721
					c1.222,0,1.834-0.824,1.834-2.473c0-1.629-0.604-2.443-1.811-2.443c-1.203,0-1.805,0.818-1.805,2.455
					C20.174-1.541,20.768-0.721,21.955-0.721z M26.818,0v-6.363h1.154v1.195c0.457-0.891,1.121-1.336,1.992-1.336
					c0.117,0,0.24,0.01,0.369,0.029v1.078c-0.199-0.066-0.375-0.1-0.527-0.1c-0.731,0-1.342,0.434-1.834,1.301V0H26.818z
					 M33.639,0.146c-0.586,0-1.043-0.168-1.371-0.504c-0.328-0.336-0.492-0.803-0.492-1.4v-3.738h-0.797v-0.867h0.797v-1.154
					l1.154-0.111v1.265h1.664v0.867H32.93v3.527c0,0.832,0.359,1.248,1.078,1.248c0.152,0,0.338-0.025,0.557-0.076V0
					C34.209,0.098,33.9,0.146,33.639,0.146z M40.178,0v-1.154h1.154V0H40.178z M40.178-5.203v-1.161h1.154v1.161H40.178z M47.607,0
					v-6.363h1.154V0H47.607z M47.607-7.517v-1.154h1.154v1.154H47.607z M51.076,0v-6.363h1.154v1.195
					c0.609-0.891,1.356-1.336,2.238-1.336c0.551,0,0.99,0.175,1.318,0.524c0.328,0.35,0.492,0.82,0.492,1.409V0h-1.154v-4.195
					c0-0.472-0.07-0.809-0.208-1.011c-0.138-0.201-0.368-0.301-0.688-0.301c-0.707,0-1.373,0.463-1.998,1.388V0H51.076z
					 M60.434,0.146c-0.586,0-1.043-0.168-1.371-0.504c-0.328-0.336-0.492-0.803-0.492-1.4v-3.738h-0.797v-0.867h0.797v-1.154
					l1.154-0.111v1.265h1.664v0.867h-1.664v3.527c0,0.832,0.36,1.248,1.078,1.248c0.152,0,0.338-0.025,0.557-0.076V0
					C61.004,0.098,60.695,0.146,60.434,0.146z"/>
			</g>
		</g>
		<g transform="matrix(1.3333,0,0,1.3333,0,5.5104)">
			<g>
				<defs>
					<rect id="SVGID_46_" x="-132.237" y="-98.249" width="1057.974" height="752.981"/>
				</defs>
				<clipPath id="SVGID_47_">
					<use xlink:href="#SVGID_46_"  overflow="visible"/>
				</clipPath>
				
					<line clip-path="url(#SVGID_47_)" fill="none" stroke="#000000" stroke-linecap="square" stroke-miterlimit="10" x1="271" y1="140.266" x2="400" y2="140.266"/>
			</g>
			<g>
				<defs>
					<rect id="SVGID_48_" x="-132.237" y="-98.249" width="1057.974" height="752.981"/>
				</defs>
				<clipPath id="SVGID_49_">
					<use xlink:href="#SVGID_48_"  overflow="visible"/>
				</clipPath>
				
					<line clip-path="url(#SVGID_49_)" fill="none" stroke="#000000" stroke-linecap="square" stroke-miterlimit="10" x1="271" y1="118.133" x2="400" y2="118.133"/>
			</g>
		</g>
		<g transform="matrix(1.3333,0,0,1.3333,0,5.5104) translate(293.5,112)">
			<g>
				<defs>
					<rect id="SVGID_50_" x="-425.737" y="-210.249" width="1057.974" height="752.981"/>
				</defs>
				<clipPath id="SVGID_51_">
					<use xlink:href="#SVGID_50_"  overflow="visible"/>
				</clipPath>
				<path clip-path="url(#SVGID_51_)" d="M1.084,0v-8.672h3.732c1.344,0,2.373,0.356,3.088,1.069
					c0.715,0.713,1.072,1.741,1.072,3.085c0,1.43-0.379,2.54-1.137,3.331C7.082-0.396,6.022,0,4.658,0H1.084z M2.889-1.231h1.348
					c0.949,0,1.658-0.263,2.124-0.788c0.467-0.525,0.7-1.323,0.7-2.393c0-0.828-0.188-1.518-0.563-2.068
					C6.24-6.859,5.93-7.121,5.566-7.266C5.203-7.41,4.674-7.482,3.978-7.482h-1.09V-1.231z M10.6,0v-6.433h1.734V0H10.6z
					 M10.6-7.518v-1.447h1.734v1.447H10.6z M14.549,1.998l0.141-1.26c0.715,0.328,1.396,0.492,2.045,0.492
					c0.641,0,1.103-0.137,1.388-0.41c0.285-0.273,0.428-0.717,0.428-1.33v-0.879C18.129-0.463,17.432,0,16.459,0
					c-0.766,0-1.373-0.286-1.822-0.858c-0.449-0.572-0.674-1.347-0.674-2.323c0-1.028,0.252-1.851,0.756-2.47
					c0.504-0.619,1.174-0.929,2.009-0.929c0.656,0,1.264,0.266,1.822,0.797l0.182-0.65h1.559v4.91c0,0.98-0.059,1.687-0.179,2.121
					c-0.119,0.434-0.35,0.803-0.694,1.107c-0.578,0.5-1.392,0.75-2.443,0.75C16.228,2.455,15.42,2.303,14.549,1.998z M18.551-2.397
					v-2.373c-0.418-0.473-0.855-0.709-1.312-0.709c-0.438,0-0.786,0.199-1.043,0.598c-0.258,0.398-0.387,0.933-0.387,1.605
					c0,1.258,0.404,1.886,1.213,1.886C17.58-1.389,18.09-1.725,18.551-2.397z M22.418,0v-6.433h1.734V0H22.418z M22.418-7.518
					v-1.447h1.734v1.447H22.418z M29.636-0.035c-0.414,0.121-0.74,0.182-0.979,0.182c-1.504,0-2.256-0.703-2.256-2.109v-3.386
					h-0.721v-1.084h0.721v-1.084l1.734-0.199v1.283h1.377v1.084h-1.377v3.158c0,0.789,0.322,1.183,0.967,1.183
					c0.149,0,0.327-0.027,0.533-0.082V-0.035z M34.336-0.692c-0.578,0.559-1.197,0.838-1.857,0.838c-0.563,0-1.02-0.172-1.371-0.516
					c-0.352-0.344-0.527-0.789-0.527-1.336c0-0.711,0.284-1.259,0.853-1.643c0.568-0.385,1.382-0.577,2.44-0.577h0.463v-0.586
					c0-0.668-0.381-1.002-1.143-1.002c-0.675,0-1.359,0.191-2.051,0.574v-1.195c0.785-0.297,1.563-0.445,2.332-0.445
					C35.158-6.58,36-5.91,36-4.57v2.847c0,0.504,0.162,0.756,0.486,0.756c0.059,0,0.135-0.008,0.229-0.023l0.041,0.972
					c-0.367,0.109-0.691,0.164-0.973,0.164c-0.711,0-1.168-0.279-1.371-0.838H34.336z M34.336-1.623V-2.93h-0.41
					c-1.121,0-1.682,0.351-1.682,1.054c0,0.238,0.081,0.439,0.243,0.601c0.163,0.162,0.363,0.244,0.601,0.244
					C33.494-1.031,33.91-1.228,34.336-1.623z M38.238,0v-9.252h1.734V0H38.238z M41.654-0.076v-1.488
					c0.934,0.391,1.732,0.586,2.397,0.586c0.464,0,0.831-0.103,1.099-0.311c0.267-0.207,0.401-0.488,0.401-0.843
					c0-0.282-0.084-0.519-0.252-0.712c-0.168-0.193-0.486-0.423-0.955-0.688l-0.58-0.322c-0.777-0.438-1.326-0.857-1.647-1.257
					c-0.32-0.401-0.48-0.868-0.48-1.403c0-0.715,0.263-1.289,0.788-1.723c0.525-0.434,1.22-0.65,2.083-0.65
					c0.691,0,1.471,0.1,2.338,0.299v1.389c-0.887-0.332-1.588-0.498-2.104-0.498c-0.398,0-0.718,0.089-0.958,0.267
					c-0.24,0.178-0.36,0.411-0.36,0.7c0,0.238,0.083,0.447,0.252,0.627c0.168,0.18,0.484,0.4,0.949,0.662l0.621,0.346
					c0.836,0.469,1.412,0.9,1.729,1.295c0.316,0.394,0.475,0.875,0.475,1.441c0,0.805-0.299,1.435-0.897,1.892
					c-0.598,0.457-1.422,0.686-2.473,0.686C43.384,0.217,42.577,0.119,41.654-0.076z M54.235-0.217
					c-0.825,0.242-1.606,0.363-2.344,0.363c-1.074,0-1.922-0.305-2.543-0.914c-0.621-0.609-0.932-1.441-0.932-2.496
					c0-0.996,0.284-1.798,0.853-2.405c0.568-0.608,1.319-0.911,2.253-0.911c0.941,0,1.629,0.297,2.063,0.891
					c0.434,0.594,0.65,1.533,0.65,2.818h-3.99c0.117,1.226,0.791,1.84,2.022,1.84c0.582,0,1.238-0.135,1.969-0.404V-0.217z
					 M50.221-3.849h2.309c0-1.098-0.354-1.647-1.061-1.647C50.75-5.496,50.334-4.947,50.221-3.849z M56.027,0v-6.433h1.734v1.213
					c0.567-0.906,1.297-1.359,2.191-1.359c0.574,0,1.028,0.182,1.359,0.545c0.332,0.363,0.498,0.859,0.498,1.488V0h-1.734v-4.119
					c0-0.731-0.242-1.096-0.727-1.096c-0.551,0-1.08,0.389-1.588,1.166V0H56.027z M63.738-0.205v-1.272
					c0.859,0.36,1.594,0.539,2.203,0.539c0.711,0,1.066-0.242,1.066-0.727c0-0.312-0.293-0.586-0.879-0.82l-0.586-0.234
					c-0.636-0.258-1.092-0.535-1.365-0.832c-0.273-0.297-0.41-0.664-0.41-1.102c0-0.609,0.232-1.083,0.697-1.421
					C64.93-6.411,65.58-6.58,66.416-6.58c0.524,0,1.146,0.076,1.869,0.229v1.219c-0.695-0.242-1.272-0.363-1.729-0.363
					c-0.719,0-1.078,0.223-1.078,0.668c0,0.293,0.266,0.541,0.797,0.744l0.504,0.193c0.754,0.285,1.278,0.574,1.573,0.867
					c0.295,0.293,0.442,0.67,0.442,1.131c0,0.606-0.251,1.097-0.753,1.474c-0.502,0.377-1.155,0.565-1.96,0.565
					C65.309,0.146,64.527,0.029,63.738-0.205z M73.395,0.146c-1.004,0-1.802-0.304-2.394-0.911
					c-0.592-0.608-0.888-1.425-0.888-2.452c0-1.039,0.298-1.86,0.894-2.461c0.595-0.602,1.406-0.902,2.429-0.902
					c1.027,0,1.838,0.301,2.435,0.902c0.595,0.601,0.894,1.418,0.894,2.449c0,1.054-0.299,1.881-0.896,2.478
					C75.27-0.152,74.445,0.146,73.395,0.146z M73.424-0.938c0.996,0,1.494-0.764,1.494-2.291c0-0.699-0.132-1.252-0.396-1.658
					c-0.264-0.407-0.626-0.609-1.087-0.609c-0.457,0-0.817,0.203-1.081,0.609c-0.264,0.406-0.396,0.963-0.396,1.67
					c0,0.699,0.131,1.254,0.393,1.664C72.613-1.143,72.971-0.938,73.424-0.938z M78.358,0v-6.433h1.734v1.213
					c0.449-0.906,1.132-1.359,2.051-1.359c0.109,0,0.216,0.012,0.322,0.035v1.547c-0.246-0.09-0.475-0.135-0.685-0.135
					c-0.691,0-1.254,0.349-1.688,1.049V0H78.358z"/>
			</g>
		</g>
		<g transform="matrix(1.3333,0,0,1.3333,0,5.5104) translate(5,5)">
			<g>
				<defs>
					<rect id="SVGID_52_" x="-137.237" y="-103.248" width="1057.974" height="752.981"/>
				</defs>
				<clipPath id="SVGID_53_">
					<use xlink:href="#SVGID_52_"  overflow="visible"/>
				</clipPath>
				<rect x="231" y="273" clip-path="url(#SVGID_53_)" fill="#C0C0C0" fill-opacity="0.502" width="153.2" height="15"/>
			</g>
			<g>
				<defs>
					<rect id="SVGID_54_" x="-137.237" y="-103.248" width="1057.974" height="752.981"/>
				</defs>
				<clipPath id="SVGID_55_">
					<use xlink:href="#SVGID_54_"  overflow="visible"/>
				</clipPath>
				
					<rect x="231" y="273" clip-path="url(#SVGID_55_)" fill="none" stroke="#C0C0C0" stroke-width="2" stroke-linecap="square" stroke-miterlimit="10" stroke-opacity="0.502" width="153.2" height="15"/>
			</g>
		</g>
		<g transform="matrix(1.3333,0,0,1.3333,0,5.5104)">
			<g>
				<defs>
					<rect id="SVGID_56_" x="-132.237" y="-98.248" width="1057.974" height="752.981"/>
				</defs>
				<clipPath id="SVGID_57_">
					<use xlink:href="#SVGID_56_"  overflow="visible"/>
				</clipPath>
				
					<linearGradient id="SVGID_58_" gradientUnits="userSpaceOnUse" x1="320.3481" y1="253.5641" x2="474.3481" y2="238.5641" gradientTransform="matrix(1.3333 0 0 -1.3333 -196.123 611.1164)">
					<stop  offset="0" style="stop-color:#FFFFFF"/>
					<stop  offset="1" style="stop-color:#FFFFCC"/>
				</linearGradient>
				<rect x="231" y="273" clip-path="url(#SVGID_57_)" fill="url(#SVGID_58_)" width="153.2" height="15"/>
			</g>
			<g>
				<defs>
					<rect id="SVGID_59_" x="-132.237" y="-98.248" width="1057.974" height="752.981"/>
				</defs>
				<clipPath id="SVGID_60_">
					<use xlink:href="#SVGID_59_"  overflow="visible"/>
				</clipPath>
				
					<rect x="231" y="273" clip-path="url(#SVGID_60_)" fill="none" stroke="#000000" stroke-width="2" stroke-linecap="square" stroke-miterlimit="10" width="153.2" height="15"/>
			</g>
		</g>
		<g transform="matrix(1.3333,0,0,1.3333,0,5.5104) translate(5,5)">
			<g>
				<defs>
					<rect id="SVGID_61_" x="-137.237" y="-103.248" width="1057.974" height="752.981"/>
				</defs>
				<clipPath id="SVGID_62_">
					<use xlink:href="#SVGID_61_"  overflow="visible"/>
				</clipPath>
				<rect x="231" y="288" clip-path="url(#SVGID_62_)" fill="#C0C0C0" fill-opacity="0.502" width="383" height="233"/>
			</g>
			<g>
				<defs>
					<rect id="SVGID_63_" x="-137.237" y="-103.248" width="1057.974" height="752.981"/>
				</defs>
				<clipPath id="SVGID_64_">
					<use xlink:href="#SVGID_63_"  overflow="visible"/>
				</clipPath>
				
					<rect x="231" y="288" clip-path="url(#SVGID_64_)" fill="none" stroke="#C0C0C0" stroke-width="2" stroke-linecap="square" stroke-miterlimit="10" stroke-opacity="0.502" width="383" height="233"/>
			</g>
		</g>
		<g transform="matrix(1.3333,0,0,1.3333,0,5.5104)">
			<g>
				<defs>
					<rect id="SVGID_65_" x="-132.237" y="-98.248" width="1057.974" height="752.981"/>
				</defs>
				<clipPath id="SVGID_66_">
					<use xlink:href="#SVGID_65_"  overflow="visible"/>
				</clipPath>
				
					<linearGradient id="SVGID_67_" gradientUnits="userSpaceOnUse" x1="320.3503" y1="242.3432" x2="703.3502" y2="9.3432" gradientTransform="matrix(1.3333 0 0 -1.3333 -196.123 611.1164)">
					<stop  offset="0" style="stop-color:#FFFFFF"/>
					<stop  offset="1" style="stop-color:#FFFFCC"/>
				</linearGradient>
				<rect x="231" y="288" clip-path="url(#SVGID_66_)" fill="url(#SVGID_67_)" width="383" height="233"/>
			</g>
			<g>
				<defs>
					<rect id="SVGID_68_" x="-132.237" y="-98.248" width="1057.974" height="752.981"/>
				</defs>
				<clipPath id="SVGID_69_">
					<use xlink:href="#SVGID_68_"  overflow="visible"/>
				</clipPath>
				
					<rect x="231" y="288" clip-path="url(#SVGID_69_)" fill="none" stroke="#000000" stroke-width="2" stroke-linecap="square" stroke-miterlimit="10" width="383" height="233"/>
			</g>
		</g>
		<g transform="matrix(1.3333,0,0,1.3333,0,5.5104) translate(411.5,305)">
			<g>
				<defs>
					<rect id="SVGID_70_" x="-543.737" y="-403.248" width="1057.974" height="752.981"/>
				</defs>
				<clipPath id="SVGID_71_">
					<use xlink:href="#SVGID_70_"  overflow="visible"/>
				</clipPath>
				<path clip-path="url(#SVGID_71_)" d="M1.084,0v-9.252h1.734V0H1.084z M7.687,0.147c-1.003,0-1.802-0.304-2.394-0.911
					S4.406-2.189,4.406-3.217c0-1.039,0.298-1.86,0.894-2.461C5.896-6.279,6.705-6.58,7.728-6.58c1.028,0,1.839,0.301,2.435,0.902
					c0.596,0.601,0.894,1.418,0.894,2.449c0,1.055-0.299,1.881-0.897,2.479S8.738,0.147,7.687,0.147z M7.717-0.937
					c0.996,0,1.494-0.764,1.494-2.291c0-0.699-0.132-1.252-0.396-1.658C8.551-5.293,8.19-5.496,7.728-5.496
					c-0.457,0-0.817,0.203-1.081,0.609C6.383-4.48,6.252-3.924,6.252-3.217c0,0.699,0.131,1.254,0.393,1.664
					C6.906-1.142,7.264-0.937,7.717-0.937z M13.787,0L12-6.434h1.611l1.266,4.506l1.348-4.506h1.5l1.213,4.529l1.365-4.529h1.207
					L19.6,0h-1.664l-1.172-4.412L15.451,0H13.787z"/>
			</g>
		</g>
		<g transform="matrix(1.3333,0,0,1.3333,0,5.5104) translate(5,5)">
			<g>
				<defs>
					<rect id="SVGID_72_" x="-137.237" y="-103.248" width="1057.974" height="752.981"/>
				</defs>
				<clipPath id="SVGID_73_">
					<use xlink:href="#SVGID_72_"  overflow="visible"/>
				</clipPath>
				<rect x="255" y="323" clip-path="url(#SVGID_73_)" fill="#C0C0C0" fill-opacity="0.502" width="107" height="41.132"/>
			</g>
			<g>
				<defs>
					<rect id="SVGID_74_" x="-137.237" y="-103.248" width="1057.974" height="752.981"/>
				</defs>
				<clipPath id="SVGID_75_">
					<use xlink:href="#SVGID_74_"  overflow="visible"/>
				</clipPath>
				
					<rect x="255" y="323" clip-path="url(#SVGID_75_)" fill="none" stroke="#C0C0C0" stroke-width="2" stroke-linecap="square" stroke-miterlimit="10" stroke-opacity="0.502" width="107" height="41.132"/>
			</g>
		</g>
		<g transform="matrix(1.3333,0,0,1.3333,0,5.5104)">
			<g>
				<defs>
					<rect id="SVGID_76_" x="-132.237" y="-98.248" width="1057.974" height="752.981"/>
				</defs>
				<clipPath id="SVGID_77_">
					<use xlink:href="#SVGID_76_"  overflow="visible"/>
				</clipPath>
				
					<linearGradient id="SVGID_78_" gradientUnits="userSpaceOnUse" x1="338.4621" y1="216.3745" x2="445.4621" y2="174.3745" gradientTransform="matrix(1.3333 0 0 -1.3333 -196.1229 611.1164)">
					<stop  offset="0" style="stop-color:#FFFFFF"/>
					<stop  offset="1" style="stop-color:#FFFFCC"/>
				</linearGradient>
				<rect x="255" y="323" clip-path="url(#SVGID_77_)" fill="url(#SVGID_78_)" width="107" height="41.133"/>
			</g>
			<g>
				<defs>
					<rect id="SVGID_79_" x="-132.237" y="-98.248" width="1057.974" height="752.981"/>
				</defs>
				<clipPath id="SVGID_80_">
					<use xlink:href="#SVGID_79_"  overflow="visible"/>
				</clipPath>
				
					<rect x="255" y="323" clip-path="url(#SVGID_80_)" fill="none" stroke="#000000" stroke-width="2" stroke-linecap="square" stroke-miterlimit="10" width="107" height="41.133"/>
			</g>
		</g>
		<g transform="matrix(1.3333,0,0,1.3333,0,5.5104)">
			<g>
				<defs>
					<rect id="SVGID_81_" x="-132.237" y="-98.248" width="1057.974" height="752.981"/>
				</defs>
				<clipPath id="SVGID_82_">
					<use xlink:href="#SVGID_81_"  overflow="visible"/>
				</clipPath>
				
					<line clip-path="url(#SVGID_82_)" fill="none" stroke="#000000" stroke-linecap="square" stroke-miterlimit="10" x1="255" y1="353.133" x2="362" y2="353.133"/>
			</g>
			<g>
				<defs>
					<rect id="SVGID_83_" x="-132.237" y="-98.248" width="1057.974" height="752.981"/>
				</defs>
				<clipPath id="SVGID_84_">
					<use xlink:href="#SVGID_83_"  overflow="visible"/>
				</clipPath>
				
					<line clip-path="url(#SVGID_84_)" fill="none" stroke="#000000" stroke-linecap="square" stroke-miterlimit="10" x1="255" y1="345.133" x2="362" y2="345.133"/>
			</g>
		</g>
		<g transform="matrix(1.3333,0,0,1.3333,0,5.5104) translate(268,339)">
			<g>
				<defs>
					<rect id="SVGID_85_" x="-400.237" y="-437.249" width="1057.974" height="752.981"/>
				</defs>
				<clipPath id="SVGID_86_">
					<use xlink:href="#SVGID_85_"  overflow="visible"/>
				</clipPath>
				<path clip-path="url(#SVGID_86_)" d="M-0.399,1.523L-0.41,0.234C0.058,0.418,0.541,0.51,1.037,0.51
					c0.414,0,0.699-0.115,0.855-0.346c0.156-0.231,0.234-0.645,0.234-1.242v-7.594h1.811v7.401c0,1.066-0.217,1.834-0.65,2.303
					C2.853,1.5,2.144,1.734,1.16,1.734C0.668,1.734,0.149,1.664-0.399,1.523z M6.105,0v-8.672h1.588l4.02,5.924v-5.924h1.447V0
					h-1.617l-3.99-5.924V0H6.105z M15.328,0v-8.672h1.805V0H15.328z M26.285-0.346c-0.84,0.375-1.842,0.563-3.006,0.563
					c-1.422,0-2.529-0.401-3.322-1.201s-1.189-1.918-1.189-3.352c0-1.46,0.4-2.585,1.198-3.372c0.799-0.787,1.938-1.181,3.419-1.181
					c0.945,0,1.885,0.111,2.818,0.334v1.412c-1.058-0.371-1.945-0.557-2.66-0.557c-0.914,0-1.619,0.29-2.115,0.87
					c-0.496,0.58-0.744,1.403-0.744,2.47c0,1.047,0.267,1.863,0.8,2.449s1.274,0.879,2.224,0.879c0.851,0,1.711-0.215,2.578-0.645
					V-0.346z M30.557,0.146c-1.004,0-1.802-0.304-2.394-0.911s-0.887-1.425-0.887-2.452c0-1.039,0.298-1.859,0.893-2.461
					c0.596-0.601,1.406-0.902,2.429-0.902c1.028,0,1.839,0.301,2.435,0.902c0.596,0.602,0.894,1.418,0.894,2.449
					c0,1.055-0.299,1.881-0.897,2.479S31.608,0.146,30.557,0.146z M30.586-0.938c0.996,0,1.494-0.764,1.494-2.291
					c0-0.699-0.132-1.252-0.396-1.658c-0.264-0.406-0.626-0.609-1.087-0.609c-0.457,0-0.817,0.204-1.081,0.609
					c-0.264,0.407-0.396,0.963-0.396,1.67c0,0.699,0.131,1.254,0.393,1.664C29.775-1.143,30.133-0.938,30.586-0.938z M35.52,0
					v-6.434h1.734v1.213c0.566-0.906,1.297-1.359,2.191-1.359c0.574,0,1.027,0.182,1.359,0.545c0.332,0.363,0.498,0.86,0.498,1.488
					V0h-1.734v-4.119c0-0.73-0.242-1.096-0.727-1.096c-0.551,0-1.08,0.389-1.588,1.166V0H35.52z M46.717-0.035
					c-0.414,0.121-0.74,0.182-0.979,0.182c-1.504,0-2.256-0.703-2.256-2.109V-5.35h-0.721v-1.084h0.721v-1.084l1.734-0.199v1.283
					h1.377v1.084h-1.377v3.158c0,0.789,0.322,1.184,0.967,1.184c0.148,0,0.326-0.027,0.533-0.082V-0.035z M48.264,0v-6.434h1.734
					v1.213c0.45-0.906,1.133-1.359,2.051-1.359c0.11,0,0.217,0.012,0.322,0.035v1.547c-0.246-0.089-0.475-0.135-0.686-0.135
					c-0.691,0-1.254,0.35-1.688,1.049V0H48.264z M56.42,0.146c-1.003,0-1.802-0.304-2.394-0.911s-0.888-1.425-0.888-2.452
					c0-1.039,0.298-1.859,0.894-2.461c0.596-0.601,1.406-0.902,2.429-0.902c1.028,0,1.839,0.301,2.435,0.902
					c0.596,0.602,0.894,1.418,0.894,2.449c0,1.055-0.299,1.881-0.897,2.479S57.471,0.146,56.42,0.146z M56.449-0.938
					c0.996,0,1.494-0.764,1.494-2.291c0-0.699-0.132-1.252-0.396-1.658c-0.264-0.406-0.626-0.609-1.087-0.609
					c-0.457,0-0.817,0.204-1.081,0.609c-0.264,0.407-0.396,0.963-0.396,1.67c0,0.699,0.131,1.254,0.393,1.664
					C55.639-1.143,55.996-0.938,56.449-0.938z M61.383,0v-9.252h1.734V0H61.383z M65.285,0v-9.252h1.734V0H65.285z M74.426-0.217
					c-0.825,0.242-1.605,0.363-2.344,0.363c-1.074,0-1.922-0.305-2.543-0.914s-0.932-1.441-0.932-2.496
					c0-0.996,0.284-1.797,0.853-2.405c0.568-0.607,1.319-0.911,2.253-0.911c0.941,0,1.629,0.297,2.063,0.891
					c0.434,0.594,0.65,1.534,0.65,2.818h-3.99c0.117,1.227,0.791,1.84,2.022,1.84c0.582,0,1.238-0.135,1.969-0.404V-0.217z
					 M70.412-3.85h2.309c0-1.097-0.354-1.647-1.061-1.647C70.941-5.496,70.525-4.947,70.412-3.85z M76.219,0v-6.434h1.734v1.213
					c0.449-0.906,1.132-1.359,2.05-1.359c0.11,0,0.218,0.012,0.323,0.035v1.547c-0.247-0.089-0.475-0.135-0.686-0.135
					c-0.691,0-1.254,0.35-1.687,1.049V0H76.219z"/>
			</g>
		</g>
		<g transform="matrix(1.3333,0,0,1.3333,0,5.5104) translate(5,5)">
			<g>
				<defs>
					<rect id="SVGID_87_" x="-137.237" y="-103.248" width="1057.974" height="752.981"/>
				</defs>
				<clipPath id="SVGID_88_">
					<use xlink:href="#SVGID_87_"  overflow="visible"/>
				</clipPath>
				<rect x="255" y="428" clip-path="url(#SVGID_88_)" fill="#C0C0C0" fill-opacity="0.502" width="107" height="41.133"/>
			</g>
			<g>
				<defs>
					<rect id="SVGID_89_" x="-137.237" y="-103.248" width="1057.974" height="752.981"/>
				</defs>
				<clipPath id="SVGID_90_">
					<use xlink:href="#SVGID_89_"  overflow="visible"/>
				</clipPath>
				
					<rect x="255" y="428" clip-path="url(#SVGID_90_)" fill="none" stroke="#C0C0C0" stroke-width="2" stroke-linecap="square" stroke-miterlimit="10" stroke-opacity="0.502" width="107" height="41.133"/>
			</g>
		</g>
		<g transform="matrix(1.3333,0,0,1.3333,0,5.5104)">
			<g>
				<defs>
					<rect id="SVGID_91_" x="-132.237" y="-98.248" width="1057.974" height="752.981"/>
				</defs>
				<clipPath id="SVGID_92_">
					<use xlink:href="#SVGID_91_"  overflow="visible"/>
				</clipPath>
				
					<linearGradient id="SVGID_93_" gradientUnits="userSpaceOnUse" x1="338.4621" y1="137.6222" x2="445.4621" y2="95.6222" gradientTransform="matrix(1.3333 0 0 -1.3333 -196.123 611.1164)">
					<stop  offset="0" style="stop-color:#FFFFFF"/>
					<stop  offset="1" style="stop-color:#FFFFCC"/>
				</linearGradient>
				<rect x="255" y="428" clip-path="url(#SVGID_92_)" fill="url(#SVGID_93_)" width="107" height="41.132"/>
			</g>
			<g>
				<defs>
					<rect id="SVGID_94_" x="-132.237" y="-98.248" width="1057.974" height="752.981"/>
				</defs>
				<clipPath id="SVGID_95_">
					<use xlink:href="#SVGID_94_"  overflow="visible"/>
				</clipPath>
				
					<rect x="255" y="428" clip-path="url(#SVGID_95_)" fill="none" stroke="#000000" stroke-width="2" stroke-linecap="square" stroke-miterlimit="10" width="107" height="41.132"/>
			</g>
		</g>
		<g transform="matrix(1.3333,0,0,1.3333,0,5.5104)">
			<g>
				<defs>
					<rect id="SVGID_96_" x="-132.237" y="-98.248" width="1057.974" height="752.981"/>
				</defs>
				<clipPath id="SVGID_97_">
					<use xlink:href="#SVGID_96_"  overflow="visible"/>
				</clipPath>
				
					<line clip-path="url(#SVGID_97_)" fill="none" stroke="#000000" stroke-linecap="square" stroke-miterlimit="10" x1="255" y1="458.133" x2="362" y2="458.133"/>
			</g>
			<g>
				<defs>
					<rect id="SVGID_98_" x="-132.237" y="-98.248" width="1057.974" height="752.981"/>
				</defs>
				<clipPath id="SVGID_99_">
					<use xlink:href="#SVGID_98_"  overflow="visible"/>
				</clipPath>
				
					<line clip-path="url(#SVGID_99_)" fill="none" stroke="#000000" stroke-linecap="square" stroke-miterlimit="10" x1="255" y1="450.133" x2="362" y2="450.133"/>
			</g>
		</g>
		<g transform="matrix(1.3333,0,0,1.3333,0,5.5104) translate(265,444)">
			<g>
				<defs>
					<rect id="SVGID_100_" x="-397.237" y="-542.248" width="1057.974" height="752.981"/>
				</defs>
				<clipPath id="SVGID_101_">
					<use xlink:href="#SVGID_100_"  overflow="visible"/>
				</clipPath>
				<path clip-path="url(#SVGID_101_)" d="M1.084,0v-8.671h3.732c1.344,0,2.373,0.356,3.088,1.069
					C8.619-6.89,8.977-5.861,8.977-4.517c0,1.43-0.379,2.54-1.137,3.331C7.082-0.396,6.022,0,4.658,0H1.084z M2.889-1.231h1.348
					c0.949,0,1.658-0.262,2.124-0.788c0.467-0.525,0.7-1.323,0.7-2.393c0-0.828-0.188-1.518-0.563-2.068
					C6.24-6.86,5.93-7.121,5.566-7.265C5.203-7.41,4.674-7.482,3.978-7.482h-1.09V-1.231z M10.6,0v-6.433h1.734V0H10.6z M10.6-7.517
					v-1.447h1.734v1.447H10.6z M14.549,1.998l0.141-1.26c0.715,0.328,1.396,0.492,2.045,0.492c0.641,0,1.103-0.136,1.388-0.41
					c0.285-0.273,0.428-0.716,0.428-1.33v-0.879C18.129-0.463,17.432,0,16.459,0c-0.765,0-1.373-0.286-1.822-0.858
					c-0.449-0.572-0.674-1.346-0.674-2.323c0-1.028,0.252-1.851,0.756-2.47c0.504-0.62,1.174-0.929,2.009-0.929
					c0.656,0,1.264,0.265,1.822,0.797l0.182-0.65h1.559v4.91c0,0.98-0.06,1.687-0.179,2.12c-0.119,0.434-0.35,0.803-0.694,1.107
					c-0.578,0.5-1.392,0.75-2.443,0.75C16.228,2.455,15.42,2.303,14.549,1.998z M18.551-2.396v-2.373
					c-0.418-0.473-0.855-0.709-1.313-0.709c-0.437,0-0.785,0.199-1.043,0.598c-0.258,0.398-0.386,0.933-0.386,1.606
					c0,1.258,0.404,1.886,1.213,1.886C17.58-1.389,18.09-1.724,18.551-2.396z M22.418,0v-6.433h1.734V0H22.418z M22.418-7.517
					v-1.447h1.734v1.447H22.418z M29.637-0.035c-0.414,0.122-0.74,0.182-0.978,0.182c-1.504,0-2.256-0.703-2.256-2.109v-3.386
					h-0.721v-1.084h0.721v-1.084l1.734-0.199v1.283h1.377v1.084h-1.377v3.158c0,0.789,0.322,1.183,0.967,1.183
					c0.148,0,0.326-0.027,0.533-0.081V-0.035z M34.336-0.692c-0.578,0.559-1.197,0.838-1.857,0.838c-0.563,0-1.02-0.171-1.371-0.515
					c-0.352-0.344-0.527-0.79-0.527-1.337c0-0.71,0.284-1.258,0.852-1.643c0.568-0.385,1.382-0.577,2.44-0.577h0.463v-0.586
					c0-0.668-0.381-1.002-1.143-1.002c-0.676,0-1.359,0.191-2.051,0.574v-1.195c0.785-0.297,1.563-0.445,2.332-0.445
					C35.158-6.58,36-5.91,36-4.57v2.847c0,0.504,0.162,0.756,0.486,0.756c0.059,0,0.135-0.007,0.229-0.023l0.041,0.972
					c-0.367,0.11-0.691,0.164-0.973,0.164c-0.711,0-1.168-0.279-1.371-0.838H34.336z M34.336-1.623v-1.307h-0.41
					c-1.121,0-1.682,0.352-1.682,1.055c0,0.238,0.081,0.438,0.243,0.601c0.162,0.162,0.363,0.243,0.601,0.243
					C33.494-1.031,33.91-1.229,34.336-1.623z M38.238,0v-9.251h1.734V0H38.238z M42.141,0v-8.671h5.455v1.189h-3.65v2.637h3v1.195
					h-3V0H42.141z M52.183-0.692c-0.578,0.559-1.197,0.838-1.857,0.838c-0.563,0-1.02-0.171-1.371-0.515
					c-0.352-0.344-0.527-0.79-0.527-1.337c0-0.71,0.284-1.258,0.853-1.643c0.568-0.385,1.382-0.577,2.44-0.577h0.463v-0.586
					c0.001-0.668-0.38-1.002-1.142-1.002c-0.676,0-1.36,0.191-2.051,0.574v-1.195c0.785-0.297,1.563-0.445,2.332-0.445
					c1.683,0,2.525,0.669,2.525,2.01v2.847c0,0.504,0.163,0.756,0.486,0.756c0.059,0,0.135-0.007,0.229-0.023l0.041,0.972
					c-0.367,0.11-0.691,0.164-0.973,0.164c-0.71,0-1.168-0.279-1.37-0.838H52.183z M52.183-1.623v-1.307h-0.41
					c-1.121,0-1.681,0.352-1.681,1.055c0,0.238,0.081,0.438,0.243,0.601c0.162,0.162,0.362,0.243,0.6,0.243
					C51.342-1.031,51.758-1.229,52.183-1.623z M60.832-0.141c-0.719,0.192-1.384,0.287-1.998,0.287
					c-1.027,0-1.838-0.302-2.435-0.905c-0.595-0.604-0.894-1.425-0.894-2.464c0-1.05,0.307-1.873,0.92-2.466
					c0.614-0.594,1.461-0.891,2.543-0.891c0.524,0,1.127,0.083,1.811,0.252v1.254C60.069-5.305,59.5-5.42,59.074-5.42
					c-0.519,0-0.938,0.199-1.254,0.598c-0.316,0.398-0.475,0.927-0.475,1.588c0,0.675,0.171,1.217,0.513,1.623
					c0.342,0.406,0.798,0.609,1.368,0.609c0.52,0,1.055-0.113,1.606-0.34V-0.141z M65.789-0.035
					c-0.414,0.122-0.74,0.182-0.979,0.182c-1.504,0-2.256-0.703-2.256-2.109v-3.386h-0.721v-1.084h0.721v-1.084l1.734-0.199v1.283
					h1.377v1.084h-1.377v3.158c0,0.789,0.322,1.183,0.967,1.183c0.149,0,0.326-0.027,0.533-0.081V-0.035z M70.037,0.146
					c-1.004,0-1.802-0.303-2.394-0.91c-0.592-0.608-0.888-1.425-0.888-2.452c0-1.039,0.298-1.86,0.894-2.461
					c0.595-0.602,1.406-0.902,2.429-0.902c1.027,0,1.838,0.3,2.435,0.902c0.595,0.601,0.894,1.418,0.894,2.449
					c0,1.055-0.299,1.88-0.897,2.478S71.088,0.146,70.037,0.146z M70.066-0.938c0.996,0,1.494-0.763,1.494-2.29
					c0-0.699-0.132-1.252-0.396-1.658c-0.264-0.407-0.626-0.609-1.087-0.609c-0.457,0-0.817,0.203-1.081,0.609
					c-0.264,0.406-0.396,0.962-0.396,1.67c0,0.699,0.131,1.253,0.393,1.664C69.256-1.143,69.613-0.938,70.066-0.938z M75,0v-6.433
					h1.734v1.213c0.449-0.907,1.132-1.359,2.051-1.359c0.109,0,0.217,0.012,0.322,0.035v1.547c-0.246-0.09-0.475-0.135-0.686-0.135
					c-0.691,0-1.254,0.349-1.688,1.049V0H75z M80.479,2.314L81.938,0l-2.385-6.433h1.863l1.594,4.301l1.892-4.301h1.318
					l-3.973,8.748H80.479z"/>
			</g>
		</g>
		<g transform="matrix(1.3333,0,0,1.3333,0,5.5104) translate(5,5)">
			<g>
				<defs>
					<rect id="SVGID_102_" x="-137.237" y="-103.248" width="1057.974" height="752.981"/>
				</defs>
				<clipPath id="SVGID_103_">
					<use xlink:href="#SVGID_102_"  overflow="visible"/>
				</clipPath>
				<rect x="460" y="421" clip-path="url(#SVGID_103_)" fill="#C0C0C0" fill-opacity="0.502" width="113" height="55.266"/>
			</g>
			<g>
				<defs>
					<rect id="SVGID_104_" x="-137.237" y="-103.248" width="1057.974" height="752.981"/>
				</defs>
				<clipPath id="SVGID_105_">
					<use xlink:href="#SVGID_104_"  overflow="visible"/>
				</clipPath>
				
					<rect x="460" y="421" clip-path="url(#SVGID_105_)" fill="none" stroke="#C0C0C0" stroke-width="2" stroke-linecap="square" stroke-miterlimit="10" stroke-opacity="0.502" width="113" height="55.266"/>
			</g>
		</g>
		<g transform="matrix(1.3333,0,0,1.3333,0,5.5104)">
			<g>
				<defs>
					<rect id="SVGID_106_" x="-132.237" y="-98.248" width="1057.974" height="752.981"/>
				</defs>
				<clipPath id="SVGID_107_">
					<use xlink:href="#SVGID_106_"  overflow="visible"/>
				</clipPath>
				
					<linearGradient id="SVGID_108_" gradientUnits="userSpaceOnUse" x1="492.2145" y1="142.8115" x2="605.2153" y2="86.8111" gradientTransform="matrix(1.3333 0 0 -1.3333 -196.123 611.1164)">
					<stop  offset="0" style="stop-color:#FFFFFF"/>
					<stop  offset="1" style="stop-color:#FFFFCC"/>
				</linearGradient>
				<rect x="460" y="421" clip-path="url(#SVGID_107_)" fill="url(#SVGID_108_)" width="112.999" height="55.266"/>
			</g>
			<g>
				<defs>
					<rect id="SVGID_109_" x="-132.237" y="-98.248" width="1057.974" height="752.981"/>
				</defs>
				<clipPath id="SVGID_110_">
					<use xlink:href="#SVGID_109_"  overflow="visible"/>
				</clipPath>
				
					<rect x="460" y="421" clip-path="url(#SVGID_110_)" fill="none" stroke="#000000" stroke-width="2" stroke-linecap="square" stroke-miterlimit="10" width="112.999" height="55.266"/>
			</g>
		</g>
		<g transform="matrix(1.3333,0,0,1.3333,0,5.5104) translate(470,459.1328)">
			<g>
				<defs>
					<rect id="SVGID_111_" x="-602.237" y="-557.381" width="1057.974" height="752.981"/>
				</defs>
				<clipPath id="SVGID_112_">
					<use xlink:href="#SVGID_111_"  overflow="visible"/>
				</clipPath>
				<path clip-path="url(#SVGID_112_)" d="M0.867-3.035v-0.867H6.07v0.867H0.867z M15.873,0v-1.195
					c-0.613,0.895-1.357,1.342-2.232,1.342c-0.554,0-0.996-0.174-1.324-0.524c-0.328-0.349-0.492-0.821-0.492-1.415v-4.57h1.154
					v4.195c0,0.477,0.07,0.816,0.208,1.017c0.138,0.201,0.371,0.302,0.694,0.302c0.703,0,1.367-0.463,1.992-1.389v-4.125h1.154V0
					H15.873z M19.342,0v-6.363h1.154v1.195c0.609-0.89,1.356-1.335,2.238-1.335c0.551,0,0.99,0.174,1.318,0.524
					c0.328,0.35,0.492,0.82,0.492,1.409V0h-1.154v-4.195c0-0.472-0.07-0.809-0.208-1.011c-0.139-0.201-0.368-0.301-0.689-0.301
					c-0.707,0-1.373,0.463-1.998,1.389V0H19.342z M26.789,0v-6.363h1.154V0H26.789z M26.789-7.517v-1.154h1.154v1.154H26.789z
					 M34.341,2.314v-3.51c-0.468,0.895-1.176,1.342-2.12,1.342c-0.766,0-1.368-0.279-1.808-0.838
					c-0.439-0.558-0.659-1.322-0.659-2.291c0-1.058,0.249-1.91,0.747-2.554c0.498-0.645,1.153-0.967,1.966-0.967
					c0.754,0,1.378,0.289,1.874,0.867v-0.727h1.16v8.678H34.341z M34.341-4.846c-0.598-0.527-1.164-0.79-1.699-0.79
					c-1.106,0-1.658,0.845-1.658,2.536c0,1.488,0.492,2.232,1.476,2.232c0.641,0,1.268-0.349,1.881-1.049V-4.846z M41.789,0v-1.195
					c-0.613,0.895-1.357,1.342-2.232,1.342c-0.554,0-0.996-0.174-1.324-0.524c-0.328-0.349-0.492-0.821-0.492-1.415v-4.57h1.154
					v4.195c0,0.477,0.07,0.816,0.208,1.017c0.139,0.201,0.371,0.302,0.694,0.302c0.703,0,1.367-0.463,1.992-1.389v-4.125h1.154V0
					H41.789z M49.922-0.205c-0.773,0.234-1.436,0.352-1.986,0.352c-0.938,0-1.702-0.311-2.294-0.935
					c-0.592-0.623-0.888-1.43-0.888-2.423c0-0.965,0.261-1.756,0.782-2.373c0.522-0.617,1.189-0.926,2.001-0.926
					c0.77,0,1.365,0.274,1.784,0.82c0.42,0.547,0.63,1.325,0.63,2.332L49.945-3h-4.014c0.168,1.512,0.908,2.268,2.221,2.268
					c0.48,0,1.07-0.129,1.77-0.387V-0.205z M45.984-3.867h2.807c0-1.184-0.442-1.775-1.324-1.775
					C46.58-5.643,46.086-5.051,45.984-3.867z M50.789,2.021V1.154h6v0.867H50.789z M57.944,0v-6.363h1.154V0H57.944z M57.944-7.517
					v-1.154h1.154v1.154H57.944z M65.496,0v-1.195c-0.469,0.895-1.176,1.342-2.121,1.342c-0.765,0-1.367-0.279-1.807-0.838
					c-0.439-0.558-0.659-1.322-0.659-2.291c0-1.058,0.249-1.91,0.747-2.554c0.497-0.645,1.153-0.967,1.965-0.967
					c0.754,0,1.379,0.289,1.875,0.867v-3.615h1.16V0H65.496z M65.496-4.846c-0.598-0.527-1.164-0.79-1.699-0.79
					c-1.105,0-1.658,0.845-1.658,2.536c0,1.488,0.491,2.232,1.476,2.232c0.641,0,1.268-0.349,1.881-1.049V-4.846z M72.926,0v-1.154
					h1.154V0H72.926z M72.926-5.203v-1.161h1.154v1.161H72.926z M80.356,0v-6.363h1.154V0H80.356z M80.356-7.517v-1.154h1.154v1.154
					H80.356z M83.824,0v-6.363h1.154v1.195c0.609-0.89,1.355-1.335,2.238-1.335c0.551,0,0.99,0.174,1.318,0.524
					c0.328,0.35,0.492,0.82,0.492,1.409V0h-1.154v-4.195c0-0.472-0.07-0.809-0.208-1.011c-0.139-0.201-0.368-0.301-0.689-0.301
					c-0.708,0-1.373,0.463-1.998,1.389V0H83.824z M93.181,0.146c-0.586,0-1.043-0.168-1.371-0.504
					c-0.327-0.335-0.491-0.803-0.491-1.4v-3.738h-0.797v-0.867h0.797v-1.154l1.154-0.111v1.265h1.663v0.867h-1.663v3.527
					c0,0.832,0.359,1.248,1.077,1.248c0.152,0,0.338-0.025,0.557-0.076V0C93.752,0.098,93.444,0.146,93.181,0.146z"/>
			</g>
		</g>
		<g transform="matrix(1.3333,0,0,1.3333,0,5.5104)">
			<g>
				<defs>
					<rect id="SVGID_113_" x="-132.237" y="-98.249" width="1057.974" height="752.981"/>
				</defs>
				<clipPath id="SVGID_114_">
					<use xlink:href="#SVGID_113_"  overflow="visible"/>
				</clipPath>
				
					<line clip-path="url(#SVGID_114_)" fill="none" stroke="#000000" stroke-linecap="square" stroke-miterlimit="10" x1="460" y1="465.265" x2="573" y2="465.265"/>
			</g>
			<g>
				<defs>
					<rect id="SVGID_115_" x="-132.237" y="-98.249" width="1057.974" height="752.981"/>
				</defs>
				<clipPath id="SVGID_116_">
					<use xlink:href="#SVGID_115_"  overflow="visible"/>
				</clipPath>
				
					<line clip-path="url(#SVGID_116_)" fill="none" stroke="#000000" stroke-linecap="square" stroke-miterlimit="10" x1="460" y1="443.133" x2="573" y2="443.133"/>
			</g>
		</g>
		<g transform="matrix(1.3333,0,0,1.3333,0,5.5104) translate(474.5,437)">
			<g>
				<defs>
					<rect id="SVGID_117_" x="-606.737" y="-535.249" width="1057.974" height="752.981"/>
				</defs>
				<clipPath id="SVGID_118_">
					<use xlink:href="#SVGID_117_"  overflow="visible"/>
				</clipPath>
				<path clip-path="url(#SVGID_118_)" d="M1.084,0v-8.671h3.733c1.344,0,2.373,0.356,3.088,1.069
					C8.619-6.89,8.976-5.861,8.976-4.518c0,1.43-0.379,2.54-1.137,3.331C7.082-0.396,6.022,0,4.658,0H1.084z M2.888-1.231h1.348
					c0.949,0,1.658-0.262,2.124-0.788c0.467-0.525,0.7-1.323,0.7-2.393c0-0.828-0.188-1.518-0.562-2.068
					C6.24-6.86,5.929-7.121,5.566-7.265C5.203-7.41,4.674-7.482,3.978-7.482h-1.09V-1.231z M10.6,0v-6.433h1.734V0H10.6z
					 M10.6-7.517v-1.447h1.734v1.447H10.6z M14.549,1.998l0.141-1.26c0.715,0.328,1.397,0.492,2.045,0.492
					c0.64,0,1.103-0.136,1.389-0.41c0.285-0.273,0.428-0.716,0.428-1.33v-0.879C18.129-0.463,17.432,0,16.459,0
					c-0.765,0-1.373-0.286-1.822-0.858c-0.449-0.572-0.674-1.346-0.674-2.323c0-1.028,0.252-1.851,0.756-2.47
					c0.504-0.62,1.174-0.929,2.01-0.929c0.656,0,1.263,0.265,1.822,0.797l0.182-0.65h1.559v4.91c0,0.981-0.06,1.688-0.179,2.121
					c-0.119,0.434-0.351,0.803-0.694,1.107c-0.579,0.5-1.393,0.75-2.443,0.75C16.228,2.455,15.42,2.303,14.549,1.998z M18.551-2.397
					v-2.372c-0.418-0.473-0.855-0.709-1.313-0.709c-0.438,0-0.785,0.199-1.043,0.597c-0.258,0.399-0.387,0.934-0.387,1.606
					c0,1.258,0.404,1.887,1.213,1.887C17.58-1.389,18.09-1.724,18.551-2.397z M22.418,0v-6.433h1.734V0H22.418z M22.418-7.517
					v-1.447h1.734v1.447H22.418z M29.636-0.035c-0.414,0.122-0.74,0.182-0.979,0.182c-1.504,0-2.256-0.703-2.256-2.109v-3.386h-0.72
					v-1.084h0.72v-1.084l1.734-0.199v1.283h1.377v1.084h-1.377v3.158c0,0.79,0.322,1.184,0.967,1.184
					c0.149,0,0.327-0.027,0.533-0.082V-0.035z M34.336-0.692c-0.578,0.559-1.197,0.838-1.857,0.838c-0.562,0-1.02-0.171-1.371-0.516
					c-0.352-0.344-0.527-0.789-0.527-1.336c0-0.71,0.284-1.258,0.853-1.643c0.568-0.385,1.382-0.578,2.44-0.578h0.463v-0.585
					c0-0.668-0.381-1.002-1.143-1.002c-0.675,0-1.359,0.191-2.051,0.574v-1.195c0.785-0.297,1.563-0.445,2.332-0.445
					C35.158-6.58,36-5.91,36-4.57v2.847c0,0.504,0.163,0.756,0.486,0.756c0.059,0,0.135-0.007,0.229-0.023l0.041,0.973
					c-0.367,0.11-0.691,0.164-0.973,0.164c-0.71,0-1.168-0.279-1.371-0.838H34.336z M34.336-1.623V-2.93h-0.41
					c-1.121,0-1.682,0.352-1.682,1.055c0,0.239,0.081,0.439,0.243,0.601c0.163,0.163,0.363,0.243,0.601,0.243
					C33.494-1.032,33.91-1.229,34.336-1.623z M38.238,0v-9.251h1.734V0H38.238z M41.654-0.076v-1.488
					c0.934,0.391,1.732,0.586,2.397,0.586c0.465,0,0.831-0.103,1.099-0.311c0.267-0.207,0.401-0.488,0.401-0.844
					c0-0.281-0.084-0.519-0.252-0.711c-0.168-0.194-0.486-0.423-0.955-0.689l-0.58-0.322c-0.777-0.437-1.326-0.856-1.647-1.256
					c-0.32-0.401-0.48-0.869-0.48-1.403c0-0.715,0.263-1.289,0.788-1.723c0.525-0.434,1.22-0.65,2.083-0.65
					c0.691,0,1.471,0.1,2.338,0.299v1.389c-0.887-0.333-1.588-0.498-2.104-0.498c-0.398,0-0.718,0.089-0.958,0.267
					c-0.24,0.177-0.36,0.411-0.36,0.7c0,0.238,0.084,0.447,0.252,0.627c0.168,0.179,0.484,0.4,0.949,0.662l0.621,0.345
					c0.836,0.469,1.412,0.901,1.729,1.296c0.316,0.394,0.475,0.875,0.475,1.441c0,0.805-0.299,1.436-0.896,1.893
					c-0.598,0.457-1.422,0.686-2.473,0.686C43.385,0.217,42.576,0.119,41.654-0.076z M54.235-0.217
					c-0.825,0.242-1.605,0.363-2.344,0.363c-1.074,0-1.922-0.305-2.543-0.914c-0.621-0.609-0.932-1.441-0.932-2.496
					c0-0.995,0.284-1.797,0.853-2.405c0.568-0.608,1.319-0.911,2.253-0.911c0.941,0,1.629,0.297,2.063,0.891
					c0.434,0.593,0.65,1.533,0.65,2.818h-3.99c0.117,1.227,0.791,1.84,2.022,1.84c0.582,0,1.238-0.135,1.969-0.404V-0.217z
					 M50.221-3.849h2.309c0-1.098-0.354-1.647-1.061-1.647C50.75-5.496,50.334-4.947,50.221-3.849z M56.027,0v-6.433h1.734v1.213
					c0.567-0.907,1.297-1.359,2.191-1.359c0.574,0,1.028,0.182,1.359,0.545c0.333,0.363,0.498,0.859,0.498,1.488V0h-1.734v-4.119
					c0-0.731-0.242-1.096-0.727-1.096c-0.551,0-1.08,0.388-1.588,1.166V0H56.027z M63.738-0.205v-1.272
					c0.86,0.36,1.594,0.539,2.203,0.539c0.711,0,1.066-0.242,1.066-0.727c0-0.312-0.293-0.586-0.879-0.82l-0.586-0.234
					c-0.636-0.258-1.091-0.535-1.365-0.832c-0.273-0.297-0.41-0.664-0.41-1.101c0-0.609,0.233-1.083,0.697-1.421
					C64.93-6.411,65.58-6.58,66.416-6.58c0.524,0,1.147,0.076,1.869,0.229v1.219c-0.695-0.242-1.272-0.363-1.729-0.363
					c-0.719,0-1.078,0.223-1.078,0.668c0,0.293,0.266,0.541,0.797,0.743l0.504,0.194c0.754,0.285,1.279,0.573,1.573,0.867
					c0.295,0.292,0.442,0.669,0.442,1.13c0,0.606-0.251,1.097-0.753,1.474c-0.502,0.377-1.155,0.565-1.96,0.565
					C65.308,0.146,64.528,0.029,63.738-0.205z M73.395,0.146c-1.004,0-1.802-0.303-2.394-0.911
					c-0.592-0.607-0.888-1.425-0.888-2.452c0-1.039,0.298-1.859,0.894-2.46c0.595-0.602,1.406-0.902,2.429-0.902
					c1.028,0,1.839,0.3,2.435,0.902c0.595,0.601,0.894,1.418,0.894,2.449c0,1.054-0.299,1.88-0.896,2.478
					C75.27-0.153,74.446,0.146,73.395,0.146z M73.424-0.938c0.996,0,1.494-0.763,1.494-2.29c0-0.699-0.132-1.252-0.396-1.658
					c-0.264-0.407-0.626-0.609-1.087-0.609c-0.457,0-0.817,0.203-1.081,0.609c-0.264,0.406-0.396,0.962-0.396,1.669
					c0,0.699,0.131,1.254,0.393,1.664C72.613-1.143,72.97-0.938,73.424-0.938z M78.358,0v-6.433h1.734v1.213
					c0.449-0.907,1.132-1.359,2.051-1.359c0.109,0,0.217,0.012,0.322,0.035v1.547c-0.246-0.09-0.475-0.135-0.686-0.135
					c-0.691,0-1.254,0.349-1.688,1.048V0H78.358z"/>
			</g>
		</g>
		<g transform="matrix(1.3333,0,0,1.3333,0,5.5104) translate(5,5)">
			<g>
				<defs>
					<rect id="SVGID_119_" x="-137.237" y="-103.249" width="1057.974" height="752.981"/>
				</defs>
				<clipPath id="SVGID_120_">
					<use xlink:href="#SVGID_119_"  overflow="visible"/>
				</clipPath>
				
					<line clip-path="url(#SVGID_120_)" fill="none" stroke="#C0C0C0" stroke-linecap="square" stroke-miterlimit="10" stroke-opacity="0.502" x1="362" y1="448.584" x2="460" y2="448.615"/>
			</g>
		</g>
		<g transform="matrix(1.3333,0,0,1.3333,0,5.5104)">
			<g>
				<defs>
					<rect id="SVGID_121_" x="-132.237" y="-98.249" width="1057.974" height="752.981"/>
				</defs>
				<clipPath id="SVGID_122_">
					<use xlink:href="#SVGID_121_"  overflow="visible"/>
				</clipPath>
				
					<line clip-path="url(#SVGID_122_)" fill="none" stroke="#000000" stroke-linecap="square" stroke-miterlimit="10" x1="362" y1="448.583" x2="460" y2="448.615"/>
			</g>
		</g>
		<g transform="matrix(1.3333,0,0,1.3333,0,5.5104) translate(436.9943,471.5426)">
			<g>
				<defs>
					<rect id="SVGID_123_" x="-569.231" y="-569.791" width="1057.974" height="752.981"/>
				</defs>
				<clipPath id="SVGID_124_">
					<use xlink:href="#SVGID_123_"  overflow="visible"/>
				</clipPath>
				<path clip-path="url(#SVGID_124_)" d="M4.875-7.552l0.264,0.826L3.363-6.34c0.012-0.043,0.018-0.073,0.018-0.088
					c0-0.16-0.057-0.292-0.17-0.393L4.875-7.552z M4.553-4.911L3.85-4.4L2.93-5.965c0.199-0.023,0.335-0.123,0.41-0.299L4.553-4.911
					z M1.939-4.4L1.236-4.911l1.207-1.353c0.078,0.176,0.215,0.275,0.41,0.299L1.939-4.4z M0.645-6.726l0.27-0.826L2.578-6.82
					c-0.114,0.097-0.17,0.229-0.17,0.393c0,0.015,0.004,0.045,0.012,0.088L0.645-6.726z M2.461-8.672h0.867L3.147-6.867
					C3.076-6.91,2.992-6.931,2.895-6.931c-0.098,0-0.182,0.021-0.252,0.064L2.461-8.672z"/>
			</g>
		</g>
		<g transform="matrix(1.3333,0,0,1.3333,0,5.5104) translate(374.9943,471.5228)">
			<g>
				<defs>
					<rect id="SVGID_125_" x="-507.231" y="-569.771" width="1057.974" height="752.981"/>
				</defs>
				<clipPath id="SVGID_126_">
					<use xlink:href="#SVGID_125_"  overflow="visible"/>
				</clipPath>
				<path clip-path="url(#SVGID_126_)" d="M1.804,0v-0.867h1.734v-6.843L1.804-7.277v-0.891l2.895-0.721v8.021h1.734V0H1.804z"/>
			</g>
		</g>
		<g transform="matrix(1.3333,0,0,1.3333,0,5.5104) translate(5,5)">
			<g>
				<defs>
					<rect id="SVGID_127_" x="-137.237" y="-103.249" width="1057.974" height="752.981"/>
				</defs>
				<clipPath id="SVGID_128_">
					<use xlink:href="#SVGID_127_"  overflow="visible"/>
				</clipPath>
				
					<line clip-path="url(#SVGID_128_)" fill="none" stroke="#C0C0C0" stroke-linecap="square" stroke-miterlimit="10" stroke-opacity="0.502" x1="308.5" y1="364.133" x2="308.5" y2="428"/>
			</g>
		</g>
		<g transform="matrix(1.3333,0,0,1.3333,0,5.5104)">
			<g>
				<defs>
					<rect id="SVGID_129_" x="-132.237" y="-98.249" width="1057.974" height="752.981"/>
				</defs>
				<clipPath id="SVGID_130_">
					<use xlink:href="#SVGID_129_"  overflow="visible"/>
				</clipPath>
				
					<line clip-path="url(#SVGID_130_)" fill="none" stroke="#000000" stroke-linecap="square" stroke-miterlimit="10" x1="308.5" y1="364.133" x2="308.5" y2="428"/>
			</g>
		</g>
		<g transform="matrix(1.3333,0,0,1.3333,0,5.5104) translate(285.5,414.9336)">
			<g>
				<defs>
					<rect id="SVGID_131_" x="-417.737" y="-513.182" width="1057.974" height="752.981"/>
				</defs>
				<clipPath id="SVGID_132_">
					<use xlink:href="#SVGID_131_"  overflow="visible"/>
				</clipPath>
				<path clip-path="url(#SVGID_132_)" d="M1.805,0v-0.867h1.734v-6.844L1.805-7.278v-0.891l2.894-0.721v8.022h1.734V0H1.805z"/>
			</g>
		</g>
		<g transform="matrix(1.3333,0,0,1.3333,0,5.5104) translate(285.5,387.0664)">
			<g>
				<defs>
					<rect id="SVGID_133_" x="-417.737" y="-485.315" width="1057.974" height="752.981"/>
				</defs>
				<clipPath id="SVGID_134_">
					<use xlink:href="#SVGID_133_"  overflow="visible"/>
				</clipPath>
				<path clip-path="url(#SVGID_134_)" d="M1.805,0v-0.867h1.734v-6.844L1.805-7.278v-0.891l2.894-0.721v8.022h1.734V0H1.805z"/>
			</g>
		</g>
		<g transform="matrix(1.3333,0,0,1.3333,0,5.5104) translate(5,5)">
			<g>
				<defs>
					<rect id="SVGID_135_" x="-137.237" y="-103.249" width="1057.974" height="752.981"/>
				</defs>
				<clipPath id="SVGID_136_">
					<use xlink:href="#SVGID_135_"  overflow="visible"/>
				</clipPath>
				
					<line clip-path="url(#SVGID_136_)" fill="none" stroke="#C0C0C0" stroke-linecap="square" stroke-miterlimit="10" stroke-opacity="0.502" x1="350.89" y1="151.266" x2="501.11" y2="421"/>
			</g>
		</g>
		<g transform="matrix(1.3333,0,0,1.3333,0,5.5104)">
			<g>
				<defs>
					<rect id="SVGID_137_" x="-132.237" y="-98.249" width="1057.974" height="752.981"/>
				</defs>
				<clipPath id="SVGID_138_">
					<use xlink:href="#SVGID_137_"  overflow="visible"/>
				</clipPath>
				
					<line clip-path="url(#SVGID_138_)" fill="none" stroke="#000000" stroke-linecap="square" stroke-miterlimit="10" x1="350.889" y1="151.266" x2="501.111" y2="421"/>
			</g>
		</g>
		<g transform="matrix(1.3333,0,0,1.3333,0,5.5104) translate(471.627,418.9659)">
			<g>
				<defs>
					<rect id="SVGID_139_" x="-603.864" y="-517.214" width="1057.974" height="752.981"/>
				</defs>
				<clipPath id="SVGID_140_">
					<use xlink:href="#SVGID_139_"  overflow="visible"/>
				</clipPath>
				<path clip-path="url(#SVGID_140_)" d="M1.805,0v-0.867h1.734v-6.843L1.805-7.277v-0.891l2.895-0.721v8.021h1.734V0H1.805z"/>
			</g>
		</g>
		<g transform="matrix(1.3333,0,0,1.3333,0,5.5104) translate(338.9217,180.6829)">
			<g>
				<defs>
					<rect id="SVGID_141_" x="-471.159" y="-278.931" width="1057.974" height="752.981"/>
				</defs>
				<clipPath id="SVGID_142_">
					<use xlink:href="#SVGID_141_"  overflow="visible"/>
				</clipPath>
				<path clip-path="url(#SVGID_142_)" d="M4.875-7.553l0.264,0.826L3.363-6.34c0.012-0.043,0.018-0.072,0.018-0.088
					c0-0.16-0.056-0.291-0.17-0.393L4.875-7.553z M4.552-4.91L3.849-4.4l-0.92-1.564c0.199-0.023,0.336-0.123,0.41-0.299L4.552-4.91
					z M1.94-4.4L1.236-4.91l1.207-1.354c0.078,0.176,0.215,0.275,0.41,0.299L1.94-4.4z M0.644-6.727l0.27-0.826L2.578-6.82
					c-0.113,0.098-0.17,0.229-0.17,0.393c0,0.016,0.004,0.045,0.012,0.088L0.644-6.727z M2.461-8.672h0.867L3.146-6.867
					C3.076-6.91,2.992-6.932,2.894-6.932c-0.097,0-0.182,0.022-0.252,0.064L2.461-8.672z"/>
			</g>
		</g>
	</g>
</g>
</svg>
