<?xml version="1.0" encoding="utf-8"?>
<!-- Generator: Adobe Illustrator 16.0.4, SVG Export Plug-In . SVG Version: 6.00 Build 0)  -->
<!DOCTYPE svg PUBLIC "-//W3C//DTD SVG 1.1//EN" "http://www.w3.org/Graphics/SVG/1.1/DTD/svg11.dtd">
<svg version="1.1" id="Ebene_1" xmlns="http://www.w3.org/2000/svg" xmlns:xlink="http://www.w3.org/1999/xlink" x="0px" y="0px"
	 width="32.578px" height="31.747px" viewBox="0 0 32.578 31.747" enable-background="new 0 0 32.578 31.747" xml:space="preserve">
<path fill="#181616" d="M16.289,0C7.294,0,0,7.293,0,16.292c0,7.195,4.667,13.302,11.141,15.455
	c0.814,0.149,1.112-0.354,1.112-0.785c0-0.387-0.014-1.41-0.022-2.771c-4.531,0.984-5.487-2.184-5.487-2.184
	c-0.741-1.882-1.809-2.384-1.809-2.384c-1.479-1.01,0.112-0.989,0.112-0.989c1.635,0.114,2.495,1.679,2.495,1.679
	c1.453,2.489,3.812,1.771,4.741,1.354c0.148-1.053,0.569-1.771,1.034-2.178c-3.617-0.41-7.42-1.809-7.42-8.051
	c0-1.778,0.635-3.232,1.677-4.371c-0.167-0.412-0.727-2.068,0.16-4.311c0,0,1.368-0.438,4.479,1.67
	c1.299-0.361,2.693-0.542,4.077-0.548c1.385,0.006,2.777,0.187,4.078,0.548c3.11-2.108,4.477-1.67,4.477-1.67
	c0.889,2.243,0.329,3.899,0.162,4.311c1.043,1.139,1.674,2.593,1.674,4.371c0,6.258-3.809,7.635-7.438,8.038
	c0.584,0.503,1.104,1.497,1.104,3.017c0,2.178-0.021,3.936-0.021,4.469c0,0.437,0.293,0.943,1.121,0.783
	c6.467-2.158,11.129-8.26,11.129-15.453C32.58,7.293,25.287,0,16.289,0z"/>
</svg>
